<svg width="17" height="45" viewBox="0 0 17 45" fill="none" xmlns="http://www.w3.org/2000/svg">
<path fill-rule="evenodd" clip-rule="evenodd" d="M8.5 1.29999C6.29086 1.29999 4.5 3.09085 4.5 5.29999V29.3C4.5 29.697 4.55785 30.0806 4.66559 30.4426C2.75908 31.6933 1.5 33.8496 1.5 36.3C1.5 40.166 4.63401 43.3 8.5 43.3C12.366 43.3 15.5 40.166 15.5 36.3C15.5 33.8496 14.2409 31.6933 12.3344 30.4426C12.4421 30.0806 12.5 29.697 12.5 29.3V5.29999C12.5 3.09085 10.7091 1.29999 8.5 1.29999Z" fill="#399BF5"/>
<path d="M13.8 29.7V5.29999C13.8 2.39999 11.4 0 8.5 0C5.6 0 3.2 2.39999 3.2 5.29999V29.7C1.2 31.3 0 33.7 0 36.3C0 41 3.8 44.8 8.5 44.8C13.2 44.8 17 41 17 36.3C17 33.7 15.8 31.3 13.8 29.7ZM8.60001 42.3C5.30001 42.3 2.60001 39.6 2.60001 36.3C2.60001 34.3 3.6 32.5 5.2 31.4L5.8 31V5.29999C5.8 3.79999 7.00001 2.5 8.60001 2.5C10.1 2.5 11.4 3.69999 11.4 5.29999V31L12 31.4C13.7 32.5 14.6 34.4 14.6 36.3C14.5 39.6 11.9 42.3 8.60001 42.3Z" fill="#444444"/>
<path d="M11.1 32.6L9.89996 31.8V22.4V16.8V15.3C9.89996 14.6 9.29998 14 8.59998 14C7.89998 14 7.29997 14.6 7.29997 15.3V16.8V22.4V31.8L6.09998 32.6C4.89998 33.4 4.09998 34.8 4.09998 36.3C4.09998 38.8 6.09998 40.8 8.59998 40.8C11.1 40.8 13.1 38.8 13.1 36.3C13.1 34.8 12.3 33.4 11.1 32.6Z" fill="#444444"/>
</svg>
