<svg width="56" height="37" viewBox="0 0 56 37" fill="none" xmlns="http://www.w3.org/2000/svg">
<path d="M39 30.1H8.39999C3.79999 30.1 0 26.4 0 21.7C0 17.2 3.6 13.5 8 13.4C7.9 12.8 7.79999 12.2 7.79999 11.5C7.79999 5.2 12.9 0 19.3 0C23.1 0 26.6 1.9 28.7 4.9C30 4.2 31.4 3.8 32.9 3.8C37.9 3.8 41.9 7.8 41.9 12.8C41.9 13.1 41.9 13.5 41.8 13.8C45 15 47.2 18.1 47.2 21.6C47.3 26.4 43.6 30.1 39 30.1ZM8.29999 15.9C5.09999 15.9 2.39999 18.5 2.39999 21.8C2.39999 25.1 4.99999 27.7 8.29999 27.7H38.9C42.1 27.7 44.8 25.1 44.8 21.8C44.8 19.1 42.9 16.7 40.2 16.1L38.9 15.8L39.2 14.5C39.3 14 39.4 13.4 39.4 12.9C39.4 9.3 36.5 6.4 32.9 6.4C31.5 6.4 30.1 6.9 29 7.7L27.8 8.60001L27.1 7.3C25.5 4.4 22.5 2.5 19.2 2.5C14.3 2.5 10.2 6.5 10.2 11.5C10.2 12.4 10.3 13.3 10.6 14.2L11.1 15.8H8.29999V15.9Z" fill="#444444"/>
<path d="M47 36.1H16.4C11.8 36.1 8 32.4 8 27.7C8 23.2 11.6 19.5 16 19.4C15.9 18.8 15.8 18.2 15.8 17.5C15.8 11.2 20.9 6 27.3 6C31.1 6 34.6 7.9 36.7 10.9C38 10.2 39.4 9.8 40.9 9.8C45.9 9.8 49.9 13.8 49.9 18.8C49.9 19.1 49.9 19.5 49.8 19.8C53 21 55.2 24.1 55.2 27.6C55.3 32.4 51.6 36.1 47 36.1ZM16.3 21.9C13.1 21.9 10.4 24.5 10.4 27.8C10.4 31.1 13 33.7 16.3 33.7H46.9C50.1 33.7 52.8 31.1 52.8 27.8C52.8 25.1 50.9 22.7 48.2 22.1L46.9 21.8L47.2 20.5C47.3 20 47.4 19.4 47.4 18.9C47.4 15.3 44.5 12.4 40.9 12.4C39.5 12.4 38.1 12.9 37 13.7L35.8 14.6L35.1 13.3C33.5 10.4 30.5 8.5 27.2 8.5C22.3 8.5 18.2 12.5 18.2 17.5C18.2 18.4 18.3 19.3 18.6 20.2L19.1 21.8H16.3V21.9Z" fill="#444444"/>
</svg>
