<svg width="39" height="44" viewBox="0 0 39 44" fill="none" xmlns="http://www.w3.org/2000/svg">
<path d="M37.5 31.2L32.2 28.2C32.5 27.8 32.9 27.5 33.4 27.5C34.2 27.4 34.9 27.9 35 27.9C35.5 28.3 36.3 28.3 36.8 27.8C37.2 27.3 37.2 26.5 36.7 26C36.5 25.9 35.1 24.7 33.1 25C32 25.2 31 25.8 30.1 26.9L28.1 25.7L28.3 25.4C28.6 24.8 28.4 24 27.8 23.7C27.2 23.4 26.4 23.6 26.1 24.2L25.9 24.5L21.9 22.2L25.9 19.9L26.1 20.2C26.3 20.6 26.8 20.8 27.2 20.8C27.4 20.8 27.6 20.7 27.8 20.6C28.4 20.3 28.6 19.5 28.3 18.9L28.1 18.6L30.1 17.4C31 18.5 31.9 19.1 33.1 19.3C33.3 19.3 33.6 19.4 33.8 19.4C35.4 19.4 36.5 18.5 36.7 18.3C37.2 17.9 37.3 17.1 36.8 16.5C36.4 16 35.6 15.9 35 16.4C35 16.4 34.3 17 33.5 16.8C33 16.7 32.6 16.4 32.3 16.1L37.6 13.1C38.2 12.8 38.4 12 38.1 11.4C37.8 10.8 37 10.6 36.4 10.9L31.1 13.9C31 13.4 30.9 12.9 31 12.5C31.3 11.7 32.1 11.4 32.2 11.4C32.8 11.2 33.2 10.5 32.9 9.79999C32.7 9.09999 32 8.8 31.3 9C31.1 9.1 29.3 9.69998 28.6 11.6C28.2 12.7 28.3 13.9 28.8 15.1L26.8 16.3L26.6 16C26.3 15.4 25.5 15.2 24.9 15.5C24.3 15.8 24.1 16.6 24.4 17.2L24.6 17.5L20.6 19.8V15.1H21C21.7 15.1 22.2 14.5 22.2 13.9C22.2 13.2 21.6 12.7 21 12.7H20.6V10.4C22 10.2 23 9.69999 23.8 8.79999C25.1 7.29999 24.8 5.40001 24.7 5.20001C24.6 4.50001 23.9 4.10001 23.3 4.20001C22.6 4.30001 22.2 4.99998 22.3 5.59998C22.3 5.59998 22.4 6.50001 21.9 7.20001C21.6 7.50001 21.1 7.69999 20.7 7.79999V1.70001C20.7 1.00001 20.1 0.5 19.4 0.5C18.7 0.5 18.2 1.10001 18.2 1.70001V7.79999C17.7 7.69999 17.3 7.50001 17 7.20001C16.5 6.60001 16.6 5.69998 16.6 5.59998C16.7 4.89998 16.3 4.30001 15.6 4.20001C14.9 4.10001 14.3 4.50001 14.1 5.20001C14.1 5.40001 13.8 7.29999 15 8.79999C15.7 9.69999 16.8 10.2 18.2 10.4V12.7H17.8C17.1 12.7 16.6 13.3 16.6 13.9C16.6 14.6 17.2 15.1 17.8 15.1H18.2V19.8L14.2 17.5L14.4 17.2C14.7 16.6 14.5 15.8 13.9 15.5C13.3 15.2 12.5 15.4 12.2 16L12 16.3L10 15.1C10.5 13.8 10.6 12.6 10.2 11.6C9.50002 9.69998 7.70001 9.1 7.50001 9C6.90001 8.8 6.10001 9.09999 5.90001 9.79999C5.70001 10.5 6.00002 11.2 6.70002 11.4C6.70002 11.4 7.6 11.7 7.8 12.5C8 12.9 7.9 13.4 7.8 13.9L2.50001 10.9C1.90001 10.6 1.1 10.8 0.8 11.4C0.5 12 0.7 12.8 1.3 13.1L6.60002 16.1C6.30002 16.5 5.90001 16.8 5.40001 16.8C4.60001 17 3.9 16.4 3.8 16.4C3.3 16 2.50001 16 2.00001 16.5C1.60001 17 1.60002 17.8 2.10002 18.3C2.20002 18.4 3.40001 19.4 5.00001 19.4C5.20001 19.4 5.50002 19.4 5.70002 19.3C6.80002 19.1 7.80002 18.5 8.70002 17.4L10.7 18.6L10.5 18.9C10.2 19.5 10.4 20.3 11 20.6C11.2 20.7 11.4 20.8 11.6 20.8C12 20.8 12.5 20.6 12.7 20.2L12.9 19.9L16.9 22.2L12.9 24.5L12.7 24.2C12.4 23.6 11.6 23.4 11 23.7C10.4 24 10.2 24.8 10.5 25.4L10.7 25.7L8.70002 26.9C7.80002 25.8 6.90002 25.2 5.70002 25C3.80002 24.7 2.30002 25.9 2.10002 26C1.60002 26.4 1.50001 27.2 2.00001 27.8C2.40001 28.3 3.2 28.4 3.8 27.9C3.8 27.9 4.5 27.3 5.3 27.5C5.8 27.6 6.20001 27.9 6.50001 28.2L1.20002 31.2C0.600024 31.5 0.400024 32.3 0.700024 32.9C0.900024 33.3 1.4 33.5 1.8 33.5C2 33.5 2.20001 33.4 2.40001 33.3L7.70002 30.3C7.80002 30.8 7.9 31.3 7.8 31.7C7.5 32.5 6.70002 32.8 6.60002 32.8C6.00002 33 5.60001 33.7 5.90001 34.4C6.10001 34.9 6.60002 35.2 7.10002 35.2C7.20002 35.2 7.40001 35.2 7.50001 35.1C7.70001 35 9.50002 34.4 10.2 32.5C10.6 31.4 10.5 30.2 10 29L12 27.8L12.2 28.1C12.4 28.5 12.9 28.7 13.3 28.7C13.5 28.7 13.7 28.6 13.9 28.5C14.5 28.2 14.7 27.4 14.4 26.8L14.2 26.5L18.2 24.2V28.9H17.8C17.1 28.9 16.6 29.5 16.6 30.1C16.6 30.8 17.2 31.3 17.8 31.3H18.2V33.6C16.8 33.8 15.8 34.3 15 35.2C13.7 36.7 14 38.6 14.1 38.8C14.2 39.4 14.7 39.8 15.3 39.8C15.4 39.8 15.4 39.8 15.5 39.8C16.2 39.7 16.6 39 16.5 38.4C16.5 38.4 16.4 37.5 16.9 36.8C17.2 36.5 17.7 36.3 18.1 36.2V42.3C18.1 43 18.7 43.5 19.3 43.5C20 43.5 20.6 42.9 20.6 42.3V36.2C21.1 36.3 21.5 36.5 21.8 36.8C22.3 37.4 22.2 38.3 22.2 38.4C22.1 39.1 22.5 39.7 23.2 39.8C23.3 39.8 23.4 39.8 23.4 39.8C24 39.8 24.5 39.4 24.6 38.8C24.6 38.6 24.9 36.7 23.7 35.2C23 34.3 21.9 33.8 20.5 33.6V31.3H20.9C21.6 31.3 22.1 30.7 22.1 30.1C22.1 29.4 21.5 28.9 20.9 28.9H20.5V24.2L24.5 26.5L24.3 26.8C24 27.4 24.2 28.2 24.8 28.5C25 28.6 25.2 28.7 25.4 28.7C25.8 28.7 26.3 28.5 26.5 28.1L26.7 27.8L28.7 29C28.2 30.3 28.1 31.5 28.5 32.5C29.2 34.4 31 35 31.2 35.1C31.3 35.1 31.5 35.2 31.6 35.2C32.1 35.2 32.6 34.9 32.8 34.4C33 33.7 32.7 33 32 32.8C32 32.8 31.1 32.5 30.9 31.7C30.7 31.3 30.8 30.8 30.9 30.3L36.2 33.3C36.4 33.4 36.6 33.5 36.8 33.5C37.2 33.5 37.7 33.3 37.9 32.9C38.3 32.3 38.1 31.5 37.5 31.2Z" fill="#444444"/>
</svg>
