<svg width="53" height="31" viewBox="0 0 53 31" fill="none" xmlns="http://www.w3.org/2000/svg">
<ellipse cx="41.5" cy="12" rx="9.5" ry="10" fill="#FFBC3A"/>
<path fill-rule="evenodd" clip-rule="evenodd" d="M10.8953 29.6512C12.3673 29.6512 13.7557 29.3567 14.9785 28.8355C16.6502 29.967 18.6665 30.6279 20.8372 30.6279C22.5798 30.6279 24.223 30.202 25.6682 29.4485C26.1363 29.5357 26.6206 29.5814 27.1163 29.5814C27.2075 29.5814 27.2982 29.5799 27.3886 29.5768C28.5208 30.2425 29.8631 30.6279 31.3023 30.6279C32.8587 30.6279 34.3018 30.1772 35.4884 29.4087C36.6749 30.1772 38.118 30.6279 39.6744 30.6279C43.7202 30.6279 47 27.5824 47 23.8256C47 20.7873 44.8548 18.2142 41.8941 17.3411C41.918 17.0523 41.9302 16.7601 41.9302 16.4651C41.9302 10.6854 37.2448 6 31.4651 6C29.9957 6 28.5971 6.30283 27.3282 6.84949C25.4365 4.14262 22.2971 2.3721 18.7442 2.3721C12.9645 2.3721 8.27907 7.05749 8.27907 12.8372C8.27907 13.6694 8.37621 14.479 8.55978 15.2551C4.77998 16.0999 2 18.9454 2 22.3256C2 26.3714 5.98258 29.6512 10.8953 29.6512Z" fill="#5ECEF1"/>
<path d="M52.7 10.7C52.7 4.8 47.9 0 42 0C38.4 0 35.1 1.8 33.2 4.6C33.1 4.6 33 4.6 32.9 4.6C31.4 4.6 30 5 28.7 5.7C26.6 2.6 23.1 0.799995 19.3 0.799995C13 0.799995 7.79999 5.9 7.79999 12.3C7.79999 12.9 7.9 13.6 8 14.2C3.6 14.4 0 18.1 0 22.5C0 27.1 3.69999 30.9 8.39999 30.9H39C43.6 30.9 47.4 27.2 47.4 22.5C47.4 21.7 47.3 21 47.1 20.3C50.3 18.4 52.7 14.9 52.7 10.7ZM44.7 22.5C44.7 25.7 42.1 28.4 38.8 28.4H8.20001C5.00001 28.4 2.29999 25.8 2.29999 22.5C2.29999 19.3 4.90001 16.6 8.20001 16.6H11.1L10.6 15C10.3 14.1 10.2 13.2 10.2 12.3C10.2 7.4 14.2 3.3 19.2 3.3C22.5 3.3 25.6 5.1 27.1 8.1L27.8 9.4L29 8.5C29.9 7.9 30.9 7.4 31.9 7.3C32.2 7.2 32.6 7.2 32.9 7.2C33.5 7.2 34 7.3 34.5 7.4C37.3 8.1 39.4 10.7 39.4 13.7C39.4 14.2 39.3 14.7 39.2 15.3L38.9 16.6L40.2 16.9C41.5 17.2 42.7 17.9 43.5 19C44 19.7 44.4 20.5 44.6 21.3C44.7 21.5 44.7 22 44.7 22.5ZM45.9 17.9C44.9 16.4 43.5 15.2 41.8 14.6C41.8 14.3 41.9 13.9 41.9 13.6C41.9 9.7 39.4 6.4 36 5.2C37.5 3.6 39.6 2.5 42 2.5C46.5 2.5 50.2 6.2 50.2 10.7C50.2 13.8 48.4 16.6 45.9 17.9Z" fill="#444444"/>
</svg>
