<svg width="53" height="38" viewBox="0 0 53 38" fill="none" xmlns="http://www.w3.org/2000/svg">
<ellipse cx="40" cy="12.5" rx="7" ry="6.5" fill="#FFBC3A"/>
<path fill-rule="evenodd" clip-rule="evenodd" d="M11.5 36C13.2609 36 14.8967 35.5591 16.2535 34.8039C17.6657 35.5669 19.2823 36 21 36C22.6652 36 24.2353 35.593 25.6163 34.873C26.0636 34.9563 26.5263 35 27 35C27.0871 35 27.1739 34.9985 27.2602 34.9956C28.3421 35.6317 29.6247 36 31 36C32.4872 36 33.8662 35.5693 35 34.8349C36.1338 35.5693 37.5127 36 39 36C42.866 36 46 33.0899 46 29.5C46 26.9002 44.3563 24.6569 41.9813 23.6173C41.9937 23.4131 42 23.2073 42 23C42 17.4772 37.5228 13 32 13C30.4435 13 28.97 13.3556 27.6564 13.9901C25.926 11.0065 22.6973 9 19 9C13.4772 9 9 13.4772 9 19C9 20.1158 9.18273 21.1888 9.5199 22.1909C5.7805 22.9257 3 25.6955 3 29C3 32.866 6.80558 36 11.5 36Z" fill="#5ECEF1"/>
<path fill-rule="evenodd" clip-rule="evenodd" d="M11.5 36C13.2609 36 14.8967 35.5591 16.2535 34.8039C17.6657 35.5669 19.2823 36 21 36C22.6652 36 24.2353 35.593 25.6163 34.873C26.0636 34.9563 26.5263 35 27 35C27.0871 35 27.1739 34.9985 27.2602 34.9956C28.3421 35.6317 29.6247 36 31 36C32.4872 36 33.8662 35.5693 35 34.8349C36.1338 35.5693 37.5127 36 39 36C42.866 36 46 33.0899 46 29.5C46 26.9002 44.3563 24.6569 41.9813 23.6173C41.9937 23.4131 42 23.2073 42 23C42 17.4772 37.5228 13 32 13C30.4435 13 28.97 13.3556 27.6564 13.9901C25.926 11.0065 22.6973 9 19 9C13.4772 9 9 13.4772 9 19C9 20.1158 9.18273 21.1888 9.5199 22.1909C5.7805 22.9257 3 25.6955 3 29C3 32.866 6.80558 36 11.5 36Z" fill="#5ECEF1"/>
<path d="M51.6 12.2H47.1C46.9 11 46.4 9.90002 45.8 9.00002L48 6.80002C48.5 6.30002 48.5 5.50002 48 5.00002C47.5 4.50002 46.7 4.50002 46.2 5.00002L44 7.20001C43.1 6.50001 42 6.10001 40.8 5.90001V1.40001C40.8 0.700009 40.2 0.200012 39.6 0.200012C39 0.200012 38.4 0.800009 38.4 1.40001V5.90001C37.2 6.10001 36.1 6.60001 35.2 7.20001L33 5.00002C32.5 4.50002 31.7 4.50002 31.2 5.00002C30.7 5.50002 30.7 6.30002 31.2 6.80002L33.4 9.00002C32.9 9.70002 32.5 10.5 32.2 11.4C31.3 11.6 30.4 11.9 29.6 12.3C27.5 9.20002 24 7.40001 20.2 7.40001C13.9 7.40001 8.69999 12.5 8.69999 18.9C8.69999 19.5 8.79999 20.2 8.89999 20.8C4.49999 21 0.899994 24.7 0.899994 29.1C0.899994 33.7 4.6 37.5 9.3 37.5H39.9C44.5 37.5 48.3 33.8 48.3 29.1C48.3 25.6 46.1 22.5 42.9 21.3C42.9 21 42.9 20.8 42.9 20.5C43.4 20.3 43.8 20 44.2 19.8L46.4 22C46.6 22.2 47 22.4 47.3 22.4C47.6 22.4 47.9 22.3 48.2 22C48.7 21.5 48.7 20.7 48.2 20.2L46 18C46.7 17.1 47.1 16 47.3 14.8H51.8C52.5 14.8 53 14.2 53 13.6C52.9 12.8 52.3 12.2 51.6 12.2ZM45.6 29.1C45.6 32.3 43 35 39.7 35H9.09999C5.89999 35 3.19999 32.4 3.19999 29.1C3.19999 25.9 5.79999 23.2 9.09999 23.2H12L11.5 21.6C11.2 20.7 11.1 19.8 11.1 18.9C11.1 14 15.1 9.90001 20.1 9.90001C23.4 9.90001 26.5 11.7 28 14.7L28.7 16L29.9 15.1C30.5 14.6 31.2 14.3 31.9 14.1C32.5 13.9 33.1 13.8 33.8 13.8C34 13.8 34.2 13.8 34.4 13.8C37.1 14.1 39.4 16 40 18.6C40.1 19.1 40.2 19.7 40.2 20.2C40.2 20.5 40.2 20.8 40.1 21.1C40.1 21.3 40 21.6 40 21.8L39.7 23.1L41 23.4C43.7 23.9 45.6 26.4 45.6 29.1ZM42.4 17.8C41.4 14.4 38.5 11.8 34.8 11.3C35.6 9.50002 37.4 8.30002 39.5 8.30002C42.4 8.30002 44.7 10.6 44.7 13.5C44.8 15.3 43.8 16.9 42.4 17.8Z" fill="#444444"/>
</svg>
