<svg width="55" height="32" viewBox="0 0 55 32" fill="none" xmlns="http://www.w3.org/2000/svg">
<ellipse cx="38.8025" cy="15.8025" rx="14.8148" ry="14.8148" fill="#FFBC3A"/>
<path d="M39 32C30.2099 32 23 24.7901 23 16C23 7.20988 30.2099 0 39 0C47.7901 0 55 7.20988 55 16C55 24.8889 47.7901 32 39 32ZM39 2.46914C31.4938 2.46914 25.4691 8.49383 25.4691 16C25.4691 23.5062 31.4938 29.5309 39 29.5309C46.5062 29.5309 52.5309 23.5062 52.5309 16C52.5309 8.5926 46.4074 2.46914 39 2.46914Z" fill="#444444"/>
<path fill-rule="evenodd" clip-rule="evenodd" d="M9.02755 27.1392C10.5481 27.1392 11.9606 26.7671 13.1322 26.1299C14.3517 26.7737 15.7476 27.1392 17.2309 27.1392C18.6687 27.1392 20.0245 26.7957 21.2171 26.1882C21.6033 26.2585 22.0029 26.2953 22.4119 26.2953C22.4872 26.2953 22.5621 26.2941 22.6367 26.2916C23.5709 26.8284 24.6784 27.1392 25.866 27.1392C27.1502 27.1392 28.3409 26.7758 29.32 26.156C30.2991 26.7758 31.4898 27.1392 32.774 27.1392C36.1124 27.1392 38.8186 24.6834 38.8186 21.654C38.8186 19.4601 37.3992 17.567 35.3484 16.6896C35.3591 16.5173 35.3645 16.3437 35.3645 16.1687C35.3645 11.5081 31.4985 7.7299 26.7295 7.7299C25.3854 7.7299 24.1131 8.03 22.9788 8.56538C21.4845 6.04765 18.6965 4.35437 15.5039 4.35437C10.7349 4.35437 6.86881 8.13256 6.86881 12.7932C6.86881 13.7348 7.02661 14.6403 7.31776 15.486C4.08874 16.1061 1.68774 18.4434 1.68774 21.232C1.68774 24.4945 4.97389 27.1392 9.02755 27.1392Z" fill="#5ECEF1"/>
<path fill-rule="evenodd" clip-rule="evenodd" d="M35.3165 13.8902L35.3164 13.8903C35.2953 14.038 35.2743 14.1856 35.2743 14.3122C37.9747 15.3248 39.9156 17.9409 40 20.9789C40 24.9451 36.7933 28.0675 32.9114 28.0675H7.0886C3.12236 28.0675 0 24.8607 0 20.9789C0 17.2658 3.03798 14.1434 6.75106 13.9746C6.66667 13.4683 6.58227 12.8776 6.58227 12.3713C6.58227 6.97042 10.9705 2.66663 16.2869 2.66663C19.4937 2.66663 22.4473 4.18561 24.2194 6.80164C25.3165 6.21093 26.4979 5.87337 27.7637 5.87337C31.9831 5.87337 35.3587 9.2489 35.3587 13.4683C35.3587 13.5949 35.3376 13.7426 35.3165 13.8902ZM7.00421 25.789H32.827C35.5274 25.789 37.8059 23.5949 37.8903 20.8945C37.8903 18.616 36.2869 16.5907 34.0084 16.0843L32.9114 15.8312L33.1646 14.7341C33.1765 14.6624 33.1885 14.5923 33.2002 14.5237L33.2003 14.5228L33.2009 14.5194L33.2011 14.5181L33.2012 14.5175C33.2718 14.1046 33.3333 13.7443 33.3333 13.3839C33.3333 10.346 30.8861 7.89869 27.8481 7.89869C26.6667 7.89869 25.4852 8.23625 24.557 8.99574L23.5443 9.75523L22.9536 8.65818C21.6878 6.12653 19.0717 4.60754 16.2869 4.60754C12.0675 4.60754 8.69197 8.06746 8.69197 12.2025C8.69197 12.962 8.77638 13.7215 9.02955 14.481L9.45149 15.8312H7.00421C4.2194 15.8312 2.02531 18.0253 2.02531 20.8101C2.02531 23.5949 4.30379 25.789 7.00421 25.789Z" fill="#444444"/>
</svg>
