<svg width="48" height="42" viewBox="0 0 48 42" fill="none" xmlns="http://www.w3.org/2000/svg">
<path fill-rule="evenodd" clip-rule="evenodd" d="M10.5 28.6C12.2609 28.6 13.8967 28.159 15.2535 27.4039C16.6657 28.1669 18.2823 28.6 20 28.6C21.6652 28.6 23.2353 28.193 24.6163 27.473C25.0636 27.5563 25.5263 27.6 26 27.6C26.0871 27.6 26.1739 27.5985 26.2602 27.5956C27.3421 28.2317 28.6247 28.6 30 28.6C31.4872 28.6 32.8662 28.1693 34 27.4349C35.1338 28.1693 36.5127 28.6 38 28.6C41.866 28.6 45 25.6898 45 22.1C45 19.5002 43.3563 17.2569 40.9813 16.2173C40.9937 16.0131 41 15.8073 41 15.6C41 10.0771 36.5228 5.59998 31 5.59998C29.4435 5.59998 27.97 5.9556 26.6564 6.59003C24.926 3.60651 21.6973 1.59998 18 1.59998C12.4772 1.59998 8 6.07713 8 11.6C8 12.7157 8.18273 13.7888 8.5199 14.7909C4.7805 15.5257 2 18.2954 2 21.6C2 25.466 5.80558 28.6 10.5 28.6Z" fill="#5ECEF1"/>
<path d="M41.8 13.8C41.8 13.5 41.9 13.1 41.9 12.8C41.9 7.80002 37.9 3.80002 32.9 3.80002C31.4 3.80002 30 4.19999 28.7 4.89999C26.6 1.79999 23.1 0 19.3 0C13 0 7.79999 5.10003 7.79999 11.5C7.79999 12.1 7.9 12.8 8 13.4C3.6 13.6 0 17.3 0 21.7C0 26.3 3.69999 30.1 8.39999 30.1H39C43.6 30.1 47.4 26.4 47.4 21.7C47.3 18.2 45 15 41.8 13.8ZM38.9 27.5H8.29999C5.09999 27.5 2.39999 24.9 2.39999 21.6C2.39999 18.3 4.99999 15.7 8.29999 15.7H11.2L10.7 14.1C10.4 13.2 10.3 12.3 10.3 11.4C10.3 6.49999 14.3 2.39999 19.3 2.39999C22.6 2.39999 25.7 4.19998 27.2 7.19998L27.9 8.50003L29.1 7.60001C30.2 6.70001 31.6 6.30002 33 6.30002C36.6 6.30002 39.5 9.20002 39.5 12.8C39.5 13.3 39.4 13.8 39.3 14.4L39 15.7L40.3 16C43 16.6 44.9 19 44.9 21.7C44.8 24.9 42.1 27.5 38.9 27.5Z" fill="#444444"/>
<path d="M17.3 35.7C16.6 35.7 16.1 36.3 16.1 37C16.1 37.7 16.7 38.2 17.3 38.2C17.9 38.2 18.5 37.6 18.5 37V36.9C18.5 36.2 17.9 35.7 17.3 35.7Z" fill="#444444"/>
<path d="M10.9 32.6C10.2 32.6 9.70001 33.2 9.70001 33.9C9.70001 34.6 10.3 35.1 10.9 35.1C11.6 35.1 12.1 34.5 12.1 33.9V33.8C12.2 33.1 11.6 32.6 10.9 32.6Z" fill="#444444"/>
<path d="M10.9 38.8C10.2 38.8 9.70001 39.4 9.70001 40.1C9.70001 40.8 10.3 41.3 10.9 41.3C11.6 41.3 12.1 40.7 12.1 40.1V40.0001C12.2 39.3001 11.6 38.8 10.9 38.8Z" fill="#444444"/>
<path d="M29.9 35.7C29.2 35.7 28.7 36.3 28.7 37C28.7 37.7 29.3 38.2 29.9 38.2C30.5 38.2 31.1 37.6 31.1 37V36.9C31.2 36.2 30.6 35.7 29.9 35.7Z" fill="#444444"/>
<path d="M23.6 32.6C22.9 32.6 22.4 33.2 22.4 33.9C22.4 34.6 23 35.1 23.6 35.1C24.3 35.1 24.8 34.5 24.8 33.9V33.8C24.8 33.1 24.3 32.6 23.6 32.6Z" fill="#444444"/>
<path d="M23.6 38.8C22.9 38.8 22.4 39.4 22.4 40.1C22.4 40.8 23 41.3 23.6 41.3C24.3 41.3 24.8 40.7 24.8 40.1V40.0001C24.8 39.3001 24.3 38.8 23.6 38.8Z" fill="#444444"/>
<path d="M36.3 32.6C35.6 32.6 35.1 33.2 35.1 33.9C35.1 34.6 35.7 35.1 36.3 35.1C36.9 35.1 37.5 34.5 37.5 33.9V33.8C37.5 33.1 37 32.6 36.3 32.6Z" fill="#444444"/>
<path d="M36.3 38.8C35.6 38.8 35.1 39.4 35.1 40.1C35.1 40.8 35.7 41.3 36.3 41.3C36.9 41.3 37.5 40.7 37.5 40.1V40.0001C37.5 39.3001 37 38.8 36.3 38.8Z" fill="#444444"/>
</svg>
