<svg width="46" height="46" viewBox="0 0 46 46" fill="none" xmlns="http://www.w3.org/2000/svg">
<circle cx="22.5" cy="22.5" r="11.5" fill="#FFBC3A"/>
<path d="M44.2 21.6H35.4C35.1 19 34.1 16.7 32.6 14.8L37.1 10.3C37.6 9.80002 37.6 9.00002 37.1 8.50002C36.6 8.00002 35.8 8.00002 35.3 8.50002L30.8 13C28.9 11.4 26.6 10.4 24 10.2V1.40002C24 0.700017 23.4 0.200012 22.8 0.200012C22.2 0.200012 21.6 0.800017 21.6 1.40002V10.2C19 10.5 16.7 11.5 14.8 13L10.3 8.50002C9.80002 8.00002 9.00002 8.00002 8.50002 8.50002C8.00002 9.00002 8.00002 9.80002 8.50002 10.3L13 14.8C11.4 16.7 10.4 19 10.2 21.6H1.40002C0.700017 21.6 0.200012 22.2 0.200012 22.8C0.200012 23.5 0.800017 24 1.40002 24H10.2C10.5 26.6 11.5 28.9 13 30.8L8.50002 35.3C8.00002 35.8 8.00002 36.6 8.50002 37.1C8.70002 37.3 9.10002 37.5 9.40002 37.5C9.70002 37.5 10 37.4 10.3 37.1L14.8 32.6C16.7 34.2 19 35.2 21.6 35.4V44.2C21.6 44.9 22.2 45.4 22.8 45.4C23.4 45.4 24 44.8 24 44.2V35.4C26.6 35.1 28.9 34.1 30.8 32.6L35.3 37.1C35.5 37.3 35.9 37.5 36.2 37.5C36.5 37.5 36.8 37.4 37.1 37.1C37.6 36.6 37.6 35.8 37.1 35.3L32.6 30.8C34.2 28.9 35.2 26.6 35.4 24H44.2C44.9 24 45.4 23.4 45.4 22.8C45.5 22.1 44.9 21.6 44.2 21.6ZM22.8 33C17.2 33 12.6 28.4 12.6 22.8C12.6 17.2 17.2 12.6 22.8 12.6C28.4 12.6 33 17.2 33 22.8C33 28.4 28.5 33 22.8 33Z" fill="#444444"/>
</svg>
