<svg width="28" height="33" viewBox="0 0 28 33" fill="none" xmlns="http://www.w3.org/2000/svg">
<path fill-rule="evenodd" clip-rule="evenodd" d="M2.20001 28.569C8.11509 26.0641 12.0964 21.3734 12.0964 16C12.0964 10.905 8.51687 6.4237 3.10335 3.83763C5.53426 2.35749 8.42015 1.5 11.5155 1.5C20.1778 1.5 27.2 8.21573 27.2 16.5C27.2 24.7843 20.1778 31.5 11.5155 31.5C8.02719 31.5 4.80489 30.411 2.20001 28.569Z" fill="#E7C179"/>
<path d="M10.9 32.6C7.79999 32.6 4.79999 31.7 2.09999 30L0 28.6L2.3 27.7C7.1 25.9 10.2 21.4 10.2 16.3C10.2 11.2 7 6.69999 2.3 4.89999L0 4L2.09999 2.60001C4.69999 0.900006 7.79999 0 10.9 0C19.8 0 27.1 7.3 27.1 16.2C27.1 25.3 19.8 32.6 10.9 32.6ZM5.5 29C7.2 29.7 9 30.1 10.8 30.1C18.4 30.1 24.5 24 24.5 16.4C24.5 8.79999 18.4 2.7 10.8 2.7C9 2.7 7.2 3.1 5.5 3.8C9.9 6.4 12.7 11.2 12.7 16.4C12.8 21.6 9.9 26.4 5.5 29Z" fill="#444444"/>
</svg>
