<svg width="61" height="39" viewBox="0 0 61 39" fill="none" xmlns="http://www.w3.org/2000/svg">
<g filter="url(#filter0_d_1_403)">
<path fill-rule="evenodd" clip-rule="evenodd" d="M12.0276 29.4726C13.767 29.4726 15.3651 28.9856 16.6229 28.1719C17.9563 28.9957 19.5366 29.4726 21.2309 29.4726C22.6687 29.4726 24.0245 29.1291 25.2171 28.5216C25.6033 28.5918 26.0029 28.6287 26.4119 28.6287C26.4872 28.6287 26.5621 28.6275 26.6367 28.625C27.5709 29.1618 28.6784 29.4726 29.866 29.4726C31.1502 29.4726 32.3409 29.1091 33.32 28.4894C34.2991 29.1091 35.4898 29.4726 36.774 29.4726C40.1124 29.4726 42.8186 27.0168 42.8186 23.9873C42.8186 21.7934 41.3992 19.9003 39.3484 19.023C39.3591 18.8507 39.3645 18.677 39.3645 18.5021C39.3645 13.8415 35.4985 10.0633 30.7295 10.0633C29.3854 10.0633 28.1131 10.3634 26.9788 10.8988C25.4845 8.38102 22.6965 6.68774 19.5039 6.68774C14.7349 6.68774 10.8688 10.4659 10.8688 15.1266C10.8688 16.0199 11.0109 16.8809 11.2741 17.689C7.57439 17.9926 4.68774 20.5077 4.68774 23.5654C4.68774 26.8279 7.97389 29.4726 12.0276 29.4726Z" fill="#407080"/>
<path fill-rule="evenodd" clip-rule="evenodd" d="M39.3165 16.2236L39.3164 16.2237C39.2953 16.3714 39.2743 16.519 39.2743 16.6456C41.9747 17.6582 43.9156 20.2743 44 23.3122C44 27.2785 40.7933 30.4009 36.9114 30.4009H11.0886C7.12236 30.4009 4 27.1941 4 23.3122C4 19.5992 7.03798 16.4768 10.7511 16.308C10.6667 15.8017 10.5823 15.211 10.5823 14.7046C10.5823 9.3038 14.9705 5 20.2869 5C23.4937 5 26.4473 6.51898 28.2194 9.13502C29.3165 8.5443 30.4979 8.20674 31.7637 8.20674C35.9831 8.20674 39.3587 11.5823 39.3587 15.8017C39.3587 15.9283 39.3376 16.0759 39.3165 16.2236ZM11.0042 28.1224H36.827C39.5274 28.1224 41.8059 25.9283 41.8903 23.2278C41.8903 20.9494 40.2869 18.924 38.0084 18.4177L36.9114 18.1646L37.1646 17.0675C37.1765 16.9957 37.1885 16.9257 37.2002 16.857L37.2003 16.8562L37.2009 16.8528L37.2011 16.8515L37.2012 16.8509C37.2718 16.438 37.3333 16.0777 37.3333 15.7173C37.3333 12.6793 34.8861 10.2321 31.8481 10.2321C30.6667 10.2321 29.4852 10.5696 28.557 11.3291L27.5443 12.0886L26.9536 10.9916C25.6878 8.45991 23.0717 6.94092 20.2869 6.94092C16.0675 6.94092 12.692 10.4008 12.692 14.5359C12.692 15.2954 12.7764 16.0549 13.0295 16.8143L13.4515 18.1646H11.0042C8.2194 18.1646 6.02531 20.3587 6.02531 23.1435C6.02531 25.9283 8.30379 28.1224 11.0042 28.1224Z" fill="#444444"/>
<path fill-rule="evenodd" clip-rule="evenodd" d="M28.1743 22.1595C29.5511 22.1595 30.8301 21.8226 31.891 21.2456C32.9951 21.8285 34.2591 22.1595 35.6022 22.1595C36.9042 22.1595 38.1318 21.8485 39.2116 21.2984C39.5614 21.362 39.9232 21.3954 40.2936 21.3954C40.3617 21.3954 40.4296 21.3943 40.4971 21.392C41.343 21.8781 42.3459 22.1595 43.4212 22.1595C44.584 22.1595 45.6622 21.8304 46.5487 21.2693C47.4352 21.8304 48.5134 22.1595 49.6763 22.1595C52.699 22.1595 55.1495 19.9358 55.1495 17.1927C55.1495 15.2062 53.8643 13.492 52.0073 12.6976C52.017 12.5416 52.0219 12.3843 52.0219 12.2259C52.0219 8.0058 48.5213 4.58473 44.203 4.58473C42.986 4.58473 41.8339 4.85646 40.8068 5.34124C39.4538 3.06146 36.9294 1.52823 34.0385 1.52823C29.7202 1.52823 26.2196 4.94931 26.2196 9.16942C26.2196 10.022 26.3625 10.842 26.6261 11.6077C23.7023 12.1692 21.5282 14.2856 21.5282 16.8107C21.5282 19.7647 24.5037 22.1595 28.1743 22.1595Z" fill="#407080"/>
<path fill-rule="evenodd" clip-rule="evenodd" d="M51.9784 10.1628C51.9593 10.2965 51.9402 10.4302 51.9402 10.5448C54.3854 11.4618 56.1428 13.8306 56.2193 16.5814C56.2193 20.1728 53.3156 23 49.8007 23H26.4186C22.8272 23 20 20.0963 20 16.5814C20 13.2193 22.7508 10.392 26.113 10.2392C26.0365 9.78072 25.9601 9.24585 25.9601 8.78737C25.9601 3.89701 29.9335 0 34.7475 0C37.6511 0 40.3256 1.37541 41.9302 3.74418C42.9236 3.2093 43.9933 2.90364 45.1395 2.90364C48.9601 2.90364 52.0166 5.96012 52.0166 9.78072C52.0166 9.89534 51.9975 10.0291 51.9784 10.1628ZM26.3422 20.9369H49.7242C52.1694 20.9369 54.2325 18.9502 54.309 16.505C54.309 14.4419 52.8571 12.608 50.794 12.1495L49.8007 11.9203L50.0299 10.9269C50.041 10.8602 50.0521 10.7951 50.063 10.7314L50.0631 10.7308L50.0631 10.7307C50.127 10.3568 50.1827 10.0306 50.1827 9.70431C50.1827 6.95348 47.9668 4.73754 45.2159 4.73754C44.1462 4.73754 43.0764 5.04319 42.2359 5.7309L41.3189 6.4186L40.7841 5.42524C39.6379 3.13288 37.2691 1.75747 34.7475 1.75747C30.9269 1.75747 27.8704 4.89036 27.8704 8.63454C27.8704 9.32225 27.9469 10.01 28.1761 10.6977L28.5581 11.9203H26.3422C23.8206 11.9203 21.8339 13.907 21.8339 16.4286C21.8339 18.9502 23.897 20.9369 26.3422 20.9369Z" fill="#444444"/>
</g>
<defs>
<filter id="filter0_d_1_403" x="0" y="0" width="60.2192" height="38.4008" filterUnits="userSpaceOnUse" color-interpolation-filters="sRGB">
<feFlood flood-opacity="0" result="BackgroundImageFix"/>
<feColorMatrix in="SourceAlpha" type="matrix" values="0 0 0 0 0 0 0 0 0 0 0 0 0 0 0 0 0 0 127 0" result="hardAlpha"/>
<feOffset dy="4"/>
<feGaussianBlur stdDeviation="2"/>
<feComposite in2="hardAlpha" operator="out"/>
<feColorMatrix type="matrix" values="0 0 0 0 0 0 0 0 0 0 0 0 0 0 0 0 0 0 0.25 0"/>
<feBlend mode="normal" in2="BackgroundImageFix" result="effect1_dropShadow_1_403"/>
<feBlend mode="normal" in="SourceGraphic" in2="effect1_dropShadow_1_403" result="shape"/>
</filter>
</defs>
</svg>
