<svg width="53" height="31" viewBox="0 0 53 31" fill="none" xmlns="http://www.w3.org/2000/svg">
<path fill-rule="evenodd" clip-rule="evenodd" d="M8.02755 29.4726C9.76698 29.4726 11.3651 28.9856 12.6229 28.1719C13.9563 28.9957 15.5366 29.4726 17.2309 29.4726C18.6687 29.4726 20.0246 29.1291 21.2171 28.5216C21.6033 28.5918 22.0029 28.6287 22.4119 28.6287C22.4872 28.6287 22.5621 28.6275 22.6367 28.625C23.5709 29.1618 24.6784 29.4726 25.866 29.4726C27.1502 29.4726 28.3409 29.1091 29.32 28.4894C30.2991 29.1091 31.4898 29.4726 32.774 29.4726C36.1124 29.4726 38.8186 27.0168 38.8186 23.9873C38.8186 21.7934 37.3992 19.9003 35.3484 19.023C35.3591 18.8507 35.3645 18.677 35.3645 18.5021C35.3645 13.8415 31.4985 10.0633 26.7295 10.0633C25.3854 10.0633 24.1131 10.3634 22.9788 10.8988C21.4845 8.38102 18.6965 6.68774 15.5039 6.68774C10.7349 6.68774 6.86881 10.4659 6.86881 15.1266C6.86881 16.0199 7.01086 16.8809 7.27409 17.689C3.57439 17.9926 0.687744 20.5077 0.687744 23.5654C0.687744 26.8279 3.97389 29.4726 8.02755 29.4726Z" fill="#8EAAB3"/>
<path fill-rule="evenodd" clip-rule="evenodd" d="M35.3165 16.2236L35.3164 16.2237C35.2953 16.3714 35.2743 16.519 35.2743 16.6456C37.9747 17.6582 39.9156 20.2743 40 23.3122C40 27.2785 36.7933 30.4009 32.9114 30.4009H7.0886C3.12236 30.4009 0 27.1941 0 23.3122C0 19.5992 3.03798 16.4768 6.75106 16.308C6.66667 15.8017 6.58227 15.211 6.58227 14.7046C6.58227 9.3038 10.9705 5 16.2869 5C19.4937 5 22.4473 6.51898 24.2194 9.13502C25.3165 8.5443 26.4979 8.20674 27.7637 8.20674C31.9831 8.20674 35.3587 11.5823 35.3587 15.8017C35.3587 15.9283 35.3376 16.0759 35.3165 16.2236ZM7.00421 28.1224H32.827C35.5274 28.1224 37.8059 25.9283 37.8903 23.2278C37.8903 20.9494 36.2869 18.924 34.0084 18.4177L32.9114 18.1646L33.1646 17.0675C33.1765 16.9957 33.1885 16.9257 33.2002 16.857L33.2003 16.8562L33.2009 16.8528L33.2011 16.8515L33.2012 16.8509C33.2718 16.438 33.3333 16.0777 33.3333 15.7173C33.3333 12.6793 30.8861 10.2321 27.8481 10.2321C26.6667 10.2321 25.4852 10.5696 24.557 11.3291L23.5443 12.0886L22.9536 10.9916C21.6878 8.45991 19.0717 6.94092 16.2869 6.94092C12.0675 6.94092 8.69197 10.4008 8.69197 14.5359C8.69197 15.2954 8.77638 16.0549 9.02955 16.8143L9.45149 18.1646H7.00421C4.2194 18.1646 2.02531 20.3587 2.02531 23.1435C2.02531 25.9283 4.30379 28.1224 7.00421 28.1224Z" fill="#444444"/>
<path fill-rule="evenodd" clip-rule="evenodd" d="M24.1743 22.1595C25.5511 22.1595 26.8301 21.8226 27.891 21.2456C28.9951 21.8285 30.2591 22.1595 31.6022 22.1595C32.9042 22.1595 34.1318 21.8485 35.2116 21.2984C35.5614 21.362 35.9232 21.3954 36.2936 21.3954C36.3617 21.3954 36.4296 21.3943 36.4971 21.392C37.343 21.8781 38.3459 22.1595 39.4212 22.1595C40.584 22.1595 41.6622 21.8304 42.5487 21.2693C43.4352 21.8304 44.5134 22.1595 45.6763 22.1595C48.699 22.1595 51.1495 19.9358 51.1495 17.1927C51.1495 15.2062 49.8643 13.492 48.0073 12.6976C48.017 12.5416 48.0219 12.3843 48.0219 12.2259C48.0219 8.0058 44.5213 4.58473 40.203 4.58473C38.986 4.58473 37.8339 4.85646 36.8068 5.34124C35.4538 3.06146 32.9294 1.52823 30.0385 1.52823C25.7202 1.52823 22.2196 4.94931 22.2196 9.16942C22.2196 10.022 22.3625 10.842 22.6261 11.6077C19.7023 12.1692 17.5282 14.2856 17.5282 16.8107C17.5282 19.7647 20.5037 22.1595 24.1743 22.1595Z" fill="#8EAAB3"/>
<path fill-rule="evenodd" clip-rule="evenodd" d="M47.9784 10.1628C47.9593 10.2965 47.9402 10.4302 47.9402 10.5448C50.3854 11.4618 52.1428 13.8306 52.2193 16.5814C52.2193 20.1728 49.3156 23 45.8007 23H22.4186C18.8272 23 16 20.0963 16 16.5814C16 13.2193 18.7508 10.392 22.113 10.2392C22.0365 9.78072 21.9601 9.24585 21.9601 8.78737C21.9601 3.89701 25.9335 0 30.7475 0C33.6511 0 36.3256 1.37541 37.9302 3.74418C38.9236 3.2093 39.9933 2.90364 41.1395 2.90364C44.9601 2.90364 48.0166 5.96012 48.0166 9.78072C48.0166 9.89534 47.9975 10.0291 47.9784 10.1628ZM22.3422 20.9369H45.7242C48.1694 20.9369 50.2325 18.9502 50.309 16.505C50.309 14.4419 48.8571 12.608 46.794 12.1495L45.8007 11.9203L46.0299 10.9269C46.041 10.8602 46.0521 10.7951 46.063 10.7314L46.0631 10.7308L46.0631 10.7307C46.127 10.3568 46.1827 10.0306 46.1827 9.70431C46.1827 6.95348 43.9668 4.73754 41.2159 4.73754C40.1462 4.73754 39.0764 5.04319 38.2359 5.7309L37.3189 6.4186L36.7841 5.42524C35.6379 3.13288 33.2691 1.75747 30.7475 1.75747C26.9269 1.75747 23.8704 4.89036 23.8704 8.63454C23.8704 9.32225 23.9469 10.01 24.1761 10.6977L24.5581 11.9203H22.3422C19.8206 11.9203 17.8339 13.907 17.8339 16.4286C17.8339 18.9502 19.897 20.9369 22.3422 20.9369Z" fill="#444444"/>
</svg>
