<svg width="48" height="47" viewBox="0 0 48 47" fill="none" xmlns="http://www.w3.org/2000/svg">
<path fill-rule="evenodd" clip-rule="evenodd" d="M10.5 28.4C12.2609 28.4 13.8967 27.9591 15.2535 27.204C16.6657 27.9669 18.2823 28.4 20 28.4C21.6652 28.4 23.2353 27.993 24.6163 27.2731C25.0636 27.3563 25.5263 27.4 26 27.4C26.0871 27.4 26.1739 27.3985 26.2602 27.3956C27.3421 28.0318 28.6247 28.4 30 28.4C31.4872 28.4 32.8662 27.9693 34 27.235C35.1338 27.9693 36.5127 28.4 38 28.4C41.866 28.4 45 25.4899 45 21.9C45 19.3002 43.3563 17.0569 40.9813 16.0173C40.9937 15.8131 41 15.6073 41 15.4C41 9.87718 36.5228 5.40002 31 5.40002C29.4435 5.40002 27.97 5.75565 26.6564 6.39008C24.926 3.40656 21.6973 1.40002 18 1.40002C12.4772 1.40002 8 5.87718 8 11.4C8 12.5158 8.18273 13.5889 8.5199 14.591C4.7805 15.3257 2 18.0955 2 21.4C2 25.266 5.80558 28.4 10.5 28.4Z" fill="#509FB8"/>
<path d="M41.8 13.8C41.8 13.5 41.9 13.1 41.9 12.8C41.9 7.79999 37.9 3.79999 32.9 3.79999C31.4 3.79999 30 4.19999 28.7 4.89999C26.6 1.79999 23.1 0 19.3 0C13 0 7.79999 5.1 7.79999 11.5C7.79999 12.1 7.9 12.8 8 13.4C3.6 13.6 0 17.3 0 21.7C0 26.3 3.69999 30.1 8.39999 30.1H39C43.6 30.1 47.4 26.4 47.4 21.7C47.3 18.1 45 15 41.8 13.8ZM38.9 27.4H8.29999C5.09999 27.4 2.39999 24.8 2.39999 21.5C2.39999 18.2 4.99999 15.6 8.29999 15.6H11.2L10.7 14C10.4 13.1 10.3 12.2 10.3 11.3C10.3 6.39999 14.3 2.29999 19.3 2.29999C22.6 2.29999 25.7 4.09999 27.2 7.09999L27.9 8.39999L29.1 7.5C30.2 6.6 31.6 6.2 33 6.2C36.6 6.2 39.5 9.1 39.5 12.7C39.5 13.2 39.4 13.7 39.3 14.3L39 15.6L40.3 15.9C43 16.5 44.9 18.9 44.9 21.6C44.8 24.8 42.1 27.4 38.9 27.4Z" fill="#444444"/>
<path d="M10.1 32C9.40004 32 8.90002 32.6 8.90002 33.2V41.2C8.90002 41.9 9.50004 42.4 10.1 42.4C10.8 42.4 11.3 41.8 11.3 41.2V33.2C11.4 32.6 10.8 32 10.1 32Z" fill="#444444"/>
<path d="M21.1 32C20.4 32 19.9 32.6 19.9 33.2V41.2C19.9 41.9 20.5 42.4 21.1 42.4C21.8 42.4 22.3 41.8 22.3 41.2V33.2C22.3 32.6 21.8 32 21.1 32Z" fill="#444444"/>
<path d="M26.6 32C25.9 32 25.4 32.6 25.4 33.2V45.4C25.4 46.1 26 46.6 26.6 46.6C27.3 46.6 27.8 46 27.8 45.4V33.2C27.8 32.6 27.2 32 26.6 32Z" fill="#444444"/>
<path d="M15.6 32C14.9 32 14.4 32.6 14.4 33.2V45.4C14.4 46.1 15 46.6 15.6 46.6C16.3 46.6 16.8 46 16.8 45.4V33.2C16.8 32.6 16.3 32 15.6 32Z" fill="#444444"/>
<path d="M32 32C31.3 32 30.8 32.6 30.8 33.2V41.2C30.8 41.9 31.4 42.4 32 42.4C32.6 42.4 33.2 41.8 33.2 41.2V33.2C33.3 32.6 32.7 32 32 32Z" fill="#444444"/>
<path d="M37.2 32C36.5 32 36 32.6 36 33.2V37.2C36 37.9 36.6 38.4 37.2 38.4C37.9 38.4 38.4 37.8 38.4 37.2V33.2C38.4 32.6 37.9 32 37.2 32Z" fill="#444444"/>
</svg>
