<svg width="18" height="46" viewBox="0 0 18 46" fill="none" xmlns="http://www.w3.org/2000/svg">
<path fill-rule="evenodd" clip-rule="evenodd" d="M9 2C6.79086 2 5 3.79086 5 6V30C5 30.3971 5.05785 30.7806 5.16559 31.1427C3.25908 32.3933 2 34.5496 2 37C2 40.866 5.13401 44 9 44C12.866 44 16 40.866 16 37C16 34.5496 14.7409 32.3933 12.8344 31.1427C12.9421 30.7806 13 30.3971 13 30V6C13 3.79086 11.2091 2 9 2Z" fill="#F53939"/>
<path d="M14.3 30.4V6C14.3 3.1 11.9 0.700012 9 0.700012C6.1 0.700012 3.7 3.1 3.7 6V30.4C1.7 32 0.5 34.4 0.5 37C0.5 41.7 4.3 45.5 9 45.5C13.7 45.5 17.5 41.7 17.5 37C17.5 34.4 16.3 32 14.3 30.4ZM9.10001 43C5.80001 43 3.10001 40.3 3.10001 37C3.10001 35 4.1 33.2 5.7 32.1L6.3 31.7V6C6.3 4.5 7.50001 3.20001 9.10001 3.20001C10.6 3.20001 11.9 4.4 11.9 6V31.7L12.5 32.1C14.2 33.2 15.1 35.1 15.1 37C15 40.3 12.4 43 9.10001 43Z" fill="#444444"/>
<path d="M11.6 33.3L10.4 32.5V23.1V17.5V16C10.4 15.3 9.79998 14.7 9.09998 14.7C8.39998 14.7 7.79997 15.3 7.79997 16V17.5V23.1V32.5L6.59998 33.3C5.39998 34.1 4.59998 35.5 4.59998 37C4.59998 39.5 6.59998 41.5 9.09998 41.5C11.6 41.5 13.6 39.5 13.6 37C13.6 35.5 12.8 34.1 11.6 33.3Z" fill="#444444"/>
</svg>
