<svg width="58" height="32" viewBox="0 0 58 32" fill="none" xmlns="http://www.w3.org/2000/svg">
<ellipse cx="32.8025" cy="15.8025" rx="14.8148" ry="14.8148" fill="#FFBC3A"/>
<path d="M33 32C24.2099 32 17 24.7901 17 16C17 7.20988 24.2099 0 33 0C41.7901 0 49 7.20988 49 16C49 24.8889 41.7901 32 33 32ZM33 2.46914C25.4938 2.46914 19.4691 8.49383 19.4691 16C19.4691 23.5062 25.4938 29.5309 33 29.5309C40.5062 29.5309 46.5309 23.5062 46.5309 16C46.5309 8.5926 40.4074 2.46914 33 2.46914Z" fill="#444444"/>
<path fill-rule="evenodd" clip-rule="evenodd" d="M9.02755 28.4726C10.5481 28.4726 11.9606 28.1005 13.1322 27.4632C14.3517 28.1071 15.7476 28.4726 17.2309 28.4726C18.6687 28.4726 20.0245 28.1291 21.2171 27.5216C21.6033 27.5918 22.0029 27.6287 22.4119 27.6287C22.4872 27.6287 22.5621 27.6275 22.6367 27.625C23.5709 28.1618 24.6784 28.4726 25.866 28.4726C27.1502 28.4726 28.3409 28.1091 29.32 27.4894C30.2991 28.1091 31.4898 28.4726 32.774 28.4726C36.1124 28.4726 38.8186 26.0168 38.8186 22.9873C38.8186 20.7934 37.3992 18.9003 35.3484 18.023C35.3591 17.8507 35.3645 17.677 35.3645 17.5021C35.3645 12.8415 31.4985 9.06327 26.7295 9.06327C25.3854 9.06327 24.1131 9.36338 22.9788 9.89876C21.4845 7.38102 18.6965 5.68774 15.5039 5.68774C10.7349 5.68774 6.86881 9.46593 6.86881 14.1266C6.86881 15.0681 7.02661 15.9737 7.31776 16.8194C4.08874 17.4394 1.68774 19.7768 1.68774 22.5654C1.68774 25.8279 4.97389 28.4726 9.02755 28.4726Z" fill="#5ECEF1"/>
<path fill-rule="evenodd" clip-rule="evenodd" d="M35.3165 15.2236L35.3164 15.2237C35.2953 15.3714 35.2743 15.519 35.2743 15.6456C37.9747 16.6582 39.9156 19.2743 40 22.3122C40 26.2785 36.7933 29.4009 32.9114 29.4009H7.0886C3.12236 29.4009 0 26.1941 0 22.3122C0 18.5992 3.03798 15.4768 6.75106 15.308C6.66667 14.8017 6.58227 14.211 6.58227 13.7046C6.58227 8.3038 10.9705 4 16.2869 4C19.4937 4 22.4473 5.51898 24.2194 8.13502C25.3165 7.5443 26.4979 7.20674 27.7637 7.20674C31.9831 7.20674 35.3587 10.5823 35.3587 14.8017C35.3587 14.9283 35.3376 15.0759 35.3165 15.2236ZM7.00421 27.1224H32.827C35.5274 27.1224 37.8059 24.9283 37.8903 22.2278C37.8903 19.9494 36.2869 17.924 34.0084 17.4177L32.9114 17.1646L33.1646 16.0675C33.1765 15.9957 33.1885 15.9257 33.2002 15.857L33.2003 15.8562L33.2009 15.8528L33.2011 15.8515L33.2012 15.8509C33.2718 15.438 33.3333 15.0777 33.3333 14.7173C33.3333 11.6793 30.8861 9.23207 27.8481 9.23207C26.6667 9.23207 25.4852 9.56962 24.557 10.3291L23.5443 11.0886L22.9536 9.99155C21.6878 7.45991 19.0717 5.94092 16.2869 5.94092C12.0675 5.94092 8.69197 9.40083 8.69197 13.5359C8.69197 14.2954 8.77638 15.0549 9.02955 15.8143L9.45149 17.1646H7.00421C4.2194 17.1646 2.02531 19.3587 2.02531 22.1435C2.02531 24.9283 4.30379 27.1224 7.00421 27.1224Z" fill="#444444"/>
<path fill-rule="evenodd" clip-rule="evenodd" d="M33.108 29.2691C34.3053 29.2691 35.4175 28.9761 36.34 28.4744C37.3001 28.9813 38.3992 29.2691 39.5671 29.2691C40.6993 29.2691 41.7668 28.9987 42.7057 28.5203C43.0099 28.5756 43.3245 28.6047 43.6466 28.6047C43.7058 28.6047 43.7648 28.6037 43.8235 28.6017C44.5591 29.0244 45.4312 29.2691 46.3662 29.2691C47.3774 29.2691 48.3149 28.983 49.0858 28.495C49.8567 28.983 50.7943 29.2691 51.8054 29.2691C54.4339 29.2691 56.5648 27.3355 56.5648 24.9502C56.5648 23.2228 55.4472 21.7322 53.8324 21.0414C53.8409 20.9057 53.8451 20.769 53.8451 20.6312C53.8451 16.9616 50.8011 13.9867 47.0461 13.9867C45.9878 13.9867 44.986 14.223 44.0929 14.6445C42.9164 12.6621 40.7212 11.3289 38.2074 11.3289C34.4524 11.3289 31.4083 14.3037 31.4083 17.9734C31.4083 18.7148 31.5326 19.4278 31.7618 20.0937C29.2194 20.5819 27.3289 22.4222 27.3289 24.618C27.3289 27.1867 29.9163 29.2691 33.108 29.2691Z" fill="#5ECEF1"/>
<path fill-rule="evenodd" clip-rule="evenodd" d="M53.8073 18.8372C53.7907 18.9535 53.7741 19.0698 53.7741 19.1694C55.9003 19.9668 57.4286 22.0266 57.495 24.4186C57.495 27.5415 54.9701 30 51.9136 30H31.5814C28.4585 30 26 27.4751 26 24.4186C26 21.495 28.392 19.0365 31.3156 18.9036C31.2492 18.505 31.1827 18.0399 31.1827 17.6412C31.1827 13.3887 34.6379 10 38.8239 10C41.3488 10 43.6744 11.196 45.0698 13.2558C45.9336 12.7907 46.8638 12.5249 47.8605 12.5249C51.1827 12.5249 53.8405 15.1827 53.8405 18.505C53.8405 18.6046 53.8239 18.7209 53.8073 18.8372ZM31.5149 28.206H51.8472C53.9734 28.206 55.7674 26.4784 55.8339 24.3522C55.8339 22.5581 54.5714 20.9634 52.7774 20.5648L51.9136 20.3654L52.1129 19.5017C52.1226 19.4435 52.1323 19.3867 52.1418 19.3311L52.1418 19.3311C52.1974 19.006 52.2458 18.7223 52.2458 18.4385C52.2458 16.0465 50.3189 14.1196 47.9269 14.1196C46.9967 14.1196 46.0664 14.3854 45.3355 14.9834L44.5382 15.5814L44.0731 14.7176C43.0764 12.7242 41.0166 11.5282 38.8239 11.5282C35.5017 11.5282 32.8438 14.2525 32.8438 17.5083C32.8438 18.1063 32.9103 18.7043 33.1096 19.3023L33.4419 20.3654H31.5149C29.3223 20.3654 27.5947 22.093 27.5947 24.2857C27.5947 26.4784 29.3887 28.206 31.5149 28.206Z" fill="#444444"/>
</svg>
