<svg width="52" height="51" viewBox="0 0 52 51" fill="none" xmlns="http://www.w3.org/2000/svg">
<circle cx="35" cy="16" r="15" fill="#FFBC3A"/>
<path d="M35.2 32.4C26.3 32.4 19 25.1 19 16.2C19 7.3 26.3 0 35.2 0C44.1 0 51.4 7.3 51.4 16.2C51.4 25.2 44.1 32.4 35.2 32.4ZM35.2 2.5C27.6 2.5 21.5 8.6 21.5 16.2C21.5 23.8 27.6 29.9 35.2 29.9C42.8 29.9 48.9 23.8 48.9 16.2C48.9 8.7 42.7 2.5 35.2 2.5Z" fill="#444444"/>
<path fill-rule="evenodd" clip-rule="evenodd" d="M10.5 32.4C12.2609 32.4 13.8967 31.9591 15.2535 31.204C16.6657 31.9669 18.2823 32.4 20 32.4C21.6652 32.4 23.2353 31.993 24.6163 31.2731C25.0636 31.3563 25.5263 31.4 26 31.4C26.0871 31.4 26.1739 31.3985 26.2602 31.3956C27.3421 32.0318 28.6247 32.4 30 32.4C31.4872 32.4 32.8662 31.9693 34 31.235C35.1338 31.9693 36.5127 32.4 38 32.4C41.866 32.4 45 29.4899 45 25.9C45 23.3002 43.3563 21.0569 40.9813 20.0173C40.9937 19.8131 41 19.6073 41 19.4C41 13.8772 36.5228 9.40002 31 9.40002C29.4435 9.40002 27.97 9.75565 26.6564 10.3901C24.926 7.40656 21.6973 5.40002 18 5.40002C12.4772 5.40002 8 9.87718 8 15.4C8 16.5158 8.18273 17.5889 8.5199 18.591C4.7805 19.3257 2 22.0955 2 25.4C2 29.266 5.80558 32.4 10.5 32.4Z" fill="#5ECEF1"/>
<path d="M41.8 17.8C41.8 17.5 41.9 17.1 41.9 16.8C41.9 11.8 37.9 7.79999 32.9 7.79999C31.4 7.79999 30 8.19999 28.7 8.89999C26.6 5.79999 23.1 4 19.3 4C13 4 7.79999 9.1 7.79999 15.5C7.79999 16.1 7.9 16.8 8 17.4C3.6 17.6 0 21.3 0 25.7C0 30.3 3.69999 34.1 8.39999 34.1H39C43.6 34.1 47.4 30.4 47.4 25.7C47.3 22.1 45 19 41.8 17.8ZM38.9 31.4H8.29999C5.09999 31.4 2.39999 28.8 2.39999 25.5C2.39999 22.2 4.99999 19.6 8.29999 19.6H11.2L10.7 18C10.4 17.1 10.3 16.2 10.3 15.3C10.3 10.4 14.3 6.29999 19.3 6.29999C22.6 6.29999 25.7 8.09999 27.2 11.1L27.9 12.4L29.1 11.5C30.2 10.6 31.6 10.2 33 10.2C36.6 10.2 39.5 13.1 39.5 16.7C39.5 17.2 39.4 17.7 39.3 18.3L39 19.6L40.3 19.9C43 20.5 44.9 22.9 44.9 25.6C44.8 28.8 42.1 31.4 38.9 31.4Z" fill="#444444"/>
<path d="M10.1 36C9.40001 36 8.89999 36.6 8.89999 37.2V45.2C8.89999 45.9 9.50001 46.4 10.1 46.4C10.8 46.4 11.3 45.8 11.3 45.2V37.2C11.4 36.6 10.8 36 10.1 36Z" fill="#444444"/>
<path d="M21.1 36C20.4 36 19.9 36.6 19.9 37.2V45.2C19.9 45.9 20.5 46.4 21.1 46.4C21.8 46.4 22.3 45.8 22.3 45.2V37.2C22.3 36.6 21.8 36 21.1 36Z" fill="#444444"/>
<path d="M26.6 36C25.9 36 25.4 36.6 25.4 37.2V49.4C25.4 50.1 26 50.6 26.6 50.6C27.3 50.6 27.8 50 27.8 49.4V37.2C27.8 36.6 27.2 36 26.6 36Z" fill="#444444"/>
<path d="M15.6 36C14.9 36 14.4 36.6 14.4 37.2V49.4C14.4 50.1 15 50.6 15.6 50.6C16.3 50.6 16.8 50 16.8 49.4V37.2C16.8 36.6 16.3 36 15.6 36Z" fill="#444444"/>
<path d="M32 36C31.3 36 30.8 36.6 30.8 37.2V45.2C30.8 45.9 31.4 46.4 32 46.4C32.6 46.4 33.2 45.8 33.2 45.2V37.2C33.3 36.6 32.7 36 32 36Z" fill="#444444"/>
<path d="M37.2 36C36.5 36 36 36.6 36 37.2V41.2C36 41.9 36.6 42.4 37.2 42.4C37.9 42.4 38.4 41.8 38.4 41.2V37.2C38.4 36.6 37.9 36 37.2 36Z" fill="#444444"/>
</svg>
