<svg width="48" height="48" viewBox="0 0 48 48" fill="none" xmlns="http://www.w3.org/2000/svg">
<path fill-rule="evenodd" clip-rule="evenodd" d="M10.5 29C12.2609 29 13.8967 28.5591 15.2535 27.8039C16.6657 28.5669 18.2823 29 20 29C21.6652 29 23.2353 28.593 24.6163 27.873C25.0636 27.9563 25.5263 28 26 28C26.0871 28 26.1739 27.9985 26.2602 27.9956C27.3421 28.6317 28.6247 29 30 29C31.4872 29 32.8662 28.5693 34 27.8349C35.1338 28.5693 36.5127 29 38 29C41.866 29 45 26.0899 45 22.5C45 19.9002 43.3563 17.6569 40.9813 16.6173C40.9937 16.4131 41 16.2073 41 16C41 10.4772 36.5228 6 31 6C29.4435 6 27.97 6.35562 26.6564 6.99005C24.926 4.00653 21.6973 2 18 2C12.4772 2 8 6.47715 8 12C8 13.1158 8.18273 14.1888 8.5199 15.1909C4.7805 15.9257 2 18.6955 2 22C2 25.866 5.80558 29 10.5 29Z" fill="#5ECEF1"/>
<path d="M41.8 14.4C41.8 14.1 41.9 13.7 41.9 13.4C41.9 8.39999 37.9 4.39999 32.9 4.39999C31.4 4.39999 30 4.8 28.7 5.5C26.6 2.4 23.1 0.600006 19.3 0.600006C13 0.600006 7.79999 5.70001 7.79999 12.1C7.79999 12.7 7.9 13.4 8 14C3.6 14.2 0 17.9 0 22.3C0 26.9 3.69999 30.7 8.39999 30.7H39C43.6 30.7 47.4 27 47.4 22.3C47.3 18.7 45 15.6 41.8 14.4ZM38.9 28H8.29999C5.09999 28 2.39999 25.4 2.39999 22.1C2.39999 18.8 4.99999 16.2 8.29999 16.2H11.2L10.7 14.6C10.4 13.7 10.3 12.8 10.3 11.9C10.3 6.99999 14.3 2.89999 19.3 2.89999C22.6 2.89999 25.7 4.7 27.2 7.7L27.9 9L29.1 8.10001C30.2 7.20001 31.6 6.8 33 6.8C36.6 6.8 39.5 9.7 39.5 13.3C39.5 13.8 39.4 14.3 39.3 14.9L39 16.2L40.3 16.5C43 17.1 44.9 19.5 44.9 22.2C44.8 25.4 42.1 28 38.9 28Z" fill="#444444"/>
<path d="M10.1 32.6C9.40004 32.6 8.90002 33.2 8.90002 33.8V41.8C8.90002 42.5 9.50004 43 10.1 43C10.8 43 11.3 42.4 11.3 41.8V33.8C11.4 33.2 10.8 32.6 10.1 32.6Z" fill="#444444"/>
<path d="M21.1 32.6C20.4 32.6 19.9 33.2 19.9 33.8V41.8C19.9 42.5 20.5 43 21.1 43C21.8 43 22.3 42.4 22.3 41.8V33.8C22.3 33.2 21.8 32.6 21.1 32.6Z" fill="#444444"/>
<path d="M26.6 32.6C25.9 32.6 25.4 33.2 25.4 33.8V46C25.4 46.7 26 47.2 26.6 47.2C27.3 47.2 27.8 46.6 27.8 46V33.8C27.8 33.2 27.2 32.6 26.6 32.6Z" fill="#444444"/>
<path d="M15.6 32.6C14.9 32.6 14.4 33.2 14.4 33.8V46C14.4 46.7 15 47.2 15.6 47.2C16.3 47.2 16.8 46.6 16.8 46V33.8C16.8 33.2 16.3 32.6 15.6 32.6Z" fill="#444444"/>
<path d="M32 32.6C31.3 32.6 30.8 33.2 30.8 33.8V41.8C30.8 42.5 31.4 43 32 43C32.6 43 33.2 42.4 33.2 41.8V33.8C33.3 33.2 32.7 32.6 32 32.6Z" fill="#444444"/>
<path d="M37.2 32.6C36.5 32.6 36 33.2 36 33.8V37.8C36 38.5 36.6 39 37.2 39C37.9 39 38.4 38.4 38.4 37.8V33.8C38.4 33.2 37.9 32.6 37.2 32.6Z" fill="#444444"/>
</svg>
