<svg width="48" height="44" viewBox="0 0 48 44" fill="none" xmlns="http://www.w3.org/2000/svg">
<path fill-rule="evenodd" clip-rule="evenodd" d="M10.6977 29.3139C12.4995 29.3139 14.1733 28.8627 15.5617 28.0901C17.0067 28.8708 18.6609 29.3139 20.4186 29.3139C22.1225 29.3139 23.7292 28.8975 25.1423 28.1608C25.6 28.246 26.0734 28.2907 26.5581 28.2907C26.6473 28.2907 26.7361 28.2892 26.8244 28.2862C27.9314 28.9371 29.2439 29.3139 30.6512 29.3139C32.173 29.3139 33.584 28.8732 34.7442 28.1218C35.9044 28.8732 37.3154 29.3139 38.8372 29.3139C42.7931 29.3139 46 26.3361 46 22.6628C46 20.0025 44.3181 17.7071 41.8878 16.6433C41.9005 16.4343 41.907 16.2237 41.907 16.0116C41.907 10.3603 37.3257 5.77906 31.6744 5.77906C30.0817 5.77906 28.574 6.14295 27.2298 6.79214C25.4591 3.73923 22.1554 1.68604 18.3721 1.68604C12.7208 1.68604 8.13953 6.26731 8.13953 11.9186C8.13953 13.0603 8.32652 14.1583 8.67153 15.1837C4.84516 15.9356 2 18.7698 2 22.1512C2 26.1071 5.89408 29.3139 10.6977 29.3139Z" fill="#5ECEF1"/>
<path d="M41.8 13.8C41.8 13.5 41.9 13.1 41.9 12.8C41.9 7.8 37.9 3.8 32.9 3.8C31.4 3.8 30 4.2 28.7 4.9C26.6 1.8 23.1 0 19.3 0C13 0 7.79999 5.1 7.79999 11.5C7.79999 12.1 7.9 12.8 8 13.4C3.6 13.6 0 17.3 0 21.7C0 26.3 3.69999 30.1 8.39999 30.1H39C43.6 30.1 47.4 26.4 47.4 21.7C47.3 18.1 45 15 41.8 13.8ZM38.9 27.4H8.29999C5.09999 27.4 2.39999 24.8 2.39999 21.5C2.39999 18.3 4.99999 15.6 8.29999 15.6H11.2L10.7 14C10.4 13.1 10.3 12.2 10.3 11.3C10.3 6.4 14.3 2.3 19.3 2.3C22.6 2.3 25.7 4.1 27.2 7.1L27.9 8.4L29.1 7.5C30.2 6.6 31.6 6.2 33 6.2C36.6 6.2 39.5 9.1 39.5 12.7C39.5 13.2 39.4 13.7 39.3 14.3L39 15.6L40.3 15.9C43 16.5 44.9 18.9 44.9 21.6C44.8 24.8 42.1 27.4 38.9 27.4Z" fill="#444444"/>
<path d="M18 35.9H15.7L17.1 33.2C17.4 32.6 17.2 31.8 16.6 31.5C16 31.2 15.2 31.4 14.9 32L12.5 36.5C12.3 36.9 12.3 37.4 12.5 37.7C12.7 38.1 13.1 38.3 13.6 38.3H15.9L14.2 41.6C13.9 42.2 14.1 43 14.7 43.3C14.9 43.4 15.1 43.4 15.3 43.4C15.8 43.4 16.2 43.2 16.4 42.7L19.1 37.6C19.3 37.2 19.3 36.7 19.1 36.4C18.9 36.2 18.5 35.9 18 35.9Z" fill="#444444"/>
<path d="M25.8 35.9H23.5L24.9 33.2C25.2 32.6 25 31.8 24.4 31.5C23.8 31.2 23 31.4 22.7 32L20.3 36.5C20.1 36.9 20.1 37.4 20.3 37.7C20.5 38.1 20.9 38.3 21.4 38.3H23.7L22 41.6C21.7 42.2 21.9 43 22.5 43.3C22.7 43.4 22.9 43.4 23.1 43.4C23.6 43.4 24 43.2 24.2 42.7L26.9 37.6C27.1 37.2 27.1 36.7 26.9 36.4C26.6 36.2 26.2 35.9 25.8 35.9Z" fill="#444444"/>
<path d="M33.5 35.9H31.2L32.6 33.2C32.9 32.6 32.7 31.8 32.1 31.5C31.5 31.2 30.7 31.4 30.4 32L28 36.5C27.8 36.9 27.8 37.4 28 37.7C28.2 38.1 28.6 38.3 29.1 38.3H31.4L29.7 41.6C29.4 42.2 29.6 43 30.2 43.3C30.4 43.4 30.6 43.4 30.8 43.4C31.3 43.4 31.7 43.2 31.9 42.7L34.6 37.6C34.8 37.2 34.8 36.7 34.6 36.4C34.4 36.2 34 35.9 33.5 35.9Z" fill="#444444"/>
</svg>
